<svg width="755" height="453" viewBox="0 0 755 453" fill="none" xmlns="http://www.w3.org/2000/svg">
<path d="M303.5 89H120C111.716 89 105 95.7157 105 104V350C105 358.284 111.716 365 120 365H140.5C148.784 365 155.5 358.284 155.5 350V277.176C155.5 268.892 162.216 262.176 170.5 262.176H251C259.284 262.176 266 255.461 266 247.176V227.487C266 219.202 259.284 212.487 251 212.487H170.5C162.216 212.487 155.5 205.771 155.5 197.487V154.5C155.5 146.216 162.216 139.5 170.5 139.5H303.5C311.784 139.5 318.5 132.784 318.5 124.5V104C318.5 95.7157 311.784 89 303.5 89Z" fill="white"/>
<path d="M346 122V102C346 93.7157 352.716 87 361 87H381C389.284 87 396 93.7157 396 102V122C396 130.284 389.284 137 381 137H361C352.716 137 346 130.284 346 122Z" fill="white"/>
<path d="M381 365H361C352.716 365 346 358.284 346 350V202C346 193.716 352.716 187 361 187H381C389.284 187 396 193.716 396 202V350C396 358.284 389.284 365 381 365Z" fill="white"/>
<path d="M446 353L446 100C446 91.7157 452.716 85 461 85H483.5C491.784 85 498.5 91.7157 498.5 100V298.392C498.5 306.676 505.216 313.392 513.5 313.392H634C642.284 313.392 649 320.108 649 328.392V353C649 361.284 642.284 368 634 368H461C452.716 368 446 361.284 446 353Z" fill="white"/>
<path d="M551 195V113.981C551 99.1893 570.145 93.3265 578.428 105.582L633.185 186.601C639.918 196.562 632.781 210 620.757 210H566C557.716 210 551 203.284 551 195Z" fill="white" stroke="white" stroke-width="27"/>
<path d="M637 253V283" stroke="white" stroke-width="27" stroke-linecap="round"/>
</svg>
